<?xml version="1.0" encoding="UTF-8" standalone="no"?>
<!-- Created with Inkscape (http://www.inkscape.org/) -->

<svg
    xmlns:dc="http://purl.org/dc/elements/1.1/"
    xmlns:cc="http://creativecommons.org/ns#"
    xmlns:rdf="http://www.w3.org/1999/02/22-rdf-syntax-ns#"
    xmlns="http://www.w3.org/2000/svg"
    xmlns:sodipodi="http://sodipodi.sourceforge.net/DTD/sodipodi-0.dtd"
    xmlns:inkscape="http://www.inkscape.org/namespaces/inkscape"
    version="1.1"
    width="18.75"
    height="18.75"
    id="svg2"
    inkscape:version="0.91 r13725"
    sodipodi:docname="highway.svg">
  <sodipodi:namedview
     pagecolor="#ffffff"
     bordercolor="#666666"
     borderopacity="1"
     objecttolerance="10"
     gridtolerance="10"
     guidetolerance="10"
     inkscape:pageopacity="0"
     inkscape:pageshadow="2"
     inkscape:window-width="1920"
     inkscape:window-height="999"
     id="namedview5764"
     showgrid="false"
     inkscape:zoom="10.680141"
     inkscape:cx="3.2532495"
     inkscape:cy="30.645055"
     inkscape:window-x="0"
     inkscape:window-y="0"
     inkscape:window-maximized="1"
     inkscape:current-layer="svg2" />
  <defs
     id="defs4" />
  <metadata
     id="metadata7">
    <rdf:RDF>
      <cc:Work
         rdf:about="">
        <dc:format>image/svg+xml</dc:format>
        <dc:type
           rdf:resource="http://purl.org/dc/dcmitype/StillImage" />
        <dc:title></dc:title>
      </cc:Work>
    </rdf:RDF>
  </metadata>
  <g
     transform="matrix(0.05391632,0,0,0.03550657,-3.6910521,-19.143335)"
     id="layer1"
     style="fill:#0068df;fill-opacity:1">
    <path
       d="m 77.325607,803.18474 0,-249.18759 165.013853,0 165.01386,0 0,249.18759 0,249.18756 -165.01386,0 -165.013853,0 0,-249.18756 z M 217.66755,1025.495 c 0.23778,-1.948 3.08551,-65.04706 6.32829,-140.22003 3.24279,-75.17298 6.1267,-140.52222 6.40872,-145.22053 l 0.51274,-8.54238 -32.1526,0 c -29.90208,0 -32.18272,0.10208 -32.58274,1.45845 -0.83881,2.84427 -72.188293,294.87869 -72.188293,295.46769 0,0.3293 27.729353,0.5988 61.620783,0.5988 l 61.62078,0 0.43232,-3.542 z m 174.68451,2.1514 c 0,-0.7648 -16.12636,-67.45712 -35.83634,-148.20526 C 336.80573,798.693 320.67937,732.37563 320.67937,732.0692 c 0,-0.30643 -14.67454,-0.55714 -32.61009,-0.55714 l -32.61008,0 0.51957,8.12568 c 0.28575,4.46912 3.16097,69.63084 6.38936,144.80382 3.22838,75.17298 6.06546,138.26764 6.3046,140.21034 l 0.43481,3.532 31.82809,0.2284 c 97.03562,0.6963 91.41643,0.7434 91.41643,-0.7659 z m -245.02058,-295.71764 0,-7.08393 59.79669,-8.3e-4 c 32.88818,-5.7e-4 76.39183,-0.2492 96.67479,-0.55252 l 36.87809,-0.55149 0,6.80304 0,6.80304 5.83383,0 5.83382,0 0,-2.80059 c 0,-1.54032 0.23849,-4.54058 0.52998,-6.66723 l 0.52998,-3.86682 18.63829,0 18.6383,0 0,-5.83383 0,-5.83382 -148.34579,0 -148.345793,0 0,6.66723 0,6.66722 19.168283,0 19.16828,0 0,5.34896 c 0,8.07642 -0.0912,7.9855 8.00649,7.9855 l 6.99476,0 0,-7.08393 z m 84.51649,-28.12736 c 0.33367,-1.67072 5.57019,-121.59725 5.51385,-126.27822 l -0.0228,-1.89278 -16.37792,0.22597 -16.37792,0.22597 -15.66542,63.75535 c -8.61599,35.06545 -15.68464,64.22414 -15.70811,64.79711 -0.0333,0.81436 6.3208,1.04175 29.11056,1.04175 l 29.15324,0 0.3745,-1.87515 z m 81.74993,0 c -2.37414,-9.98173 -30.59622,-125.57565 -30.92807,-126.67731 -0.39929,-1.32553 -1.95334,-1.45845 -17.05124,-1.45845 -12.72177,0 -16.61724,0.24395 -16.63468,1.04175 -0.0776,3.55025 5.19743,124.05938 5.52682,126.2606 l 0.40531,2.70856 29.56394,0 29.56392,0 -0.446,-1.87515 z"
       id="path2996"
       style="fill:#0068df;fill-opacity:1"
       inkscape:connector-curvature="0" />
  </g>
</svg>
