<?xml version="1.0" encoding="UTF-8" standalone="no"?>
<!-- Created with Inkscape (http://www.inkscape.org/) -->

<svg xmlns:dc="http://purl.org/dc/elements/1.1/" xmlns:cc="http://creativecommons.org/ns#" xmlns:rdf="http://www.w3.org/1999/02/22-rdf-syntax-ns#"
    xmlns="http://www.w3.org/2000/svg" xmlns:xlink="http://www.w3.org/1999/xlink" xmlns:sodipodi="http://sodipodi.sourceforge.net/DTD/sodipodi-0.dtd"
    xmlns:inkscape="http://www.inkscape.org/namespaces/inkscape" version="1.1" width="18.75" height="18.75"
    id="svg2" inkscape:version="0.48.5 r10040" sodipodi:docname="add_event.svg">
  <sodipodi:namedview
     pagecolor="#ffffff"
     bordercolor="#666666"
     borderopacity="1"
     objecttolerance="10"
     gridtolerance="10"
     guidetolerance="10"
     inkscape:pageopacity="0"
     inkscape:pageshadow="2"
     inkscape:window-width="1366"
     inkscape:window-height="684"
     id="namedview3509"
     showgrid="false"
     inkscape:zoom="21.360282"
     inkscape:cx="7.066233"
     inkscape:cy="9.9005961"
     inkscape:window-x="-8"
     inkscape:window-y="-8"
     inkscape:window-maximized="1"
     inkscape:current-layer="svg2"
     units="pt"
     inkscape:document-units="mm"
     fit-margin-top="0"
     fit-margin-left="0"
     fit-margin-right="0"
     fit-margin-bottom="0" />
  <defs
     id="defs4">
    <linearGradient
       id="linearGradient3802">
      <stop
         style="stop-color:#000000;stop-opacity:1;"
         offset="0"
         id="stop3804" />
      <stop
         style="stop-color:#000000;stop-opacity:0.23333333;"
         offset="1"
         id="stop3806" />
    </linearGradient>
    <linearGradient
       id="linearGradient3801">
      <stop
         id="stop3803"
         style="stop-color:#000000;stop-opacity:0"
         offset="0" />
    </linearGradient>
    <linearGradient
       inkscape:collect="always"
       xlink:href="#linearGradient3802"
       id="linearGradient4174"
       x1="78.217003"
       y1="249.28125"
       x2="374.65799"
       y2="249.28125"
       gradientUnits="userSpaceOnUse"
       gradientTransform="matrix(0.06199189,0,0,0.06179971,-4.8493357,-5.8155047)" />
    <linearGradient
       inkscape:collect="always"
       xlink:href="#linearGradient3801"
       id="linearGradient4183"
       x1="0.06858243"
       y1="16.046743"
       x2="31.550146"
       y2="16.046743"
       gradientUnits="userSpaceOnUse"
       gradientTransform="matrix(0.58373323,0,0,0.58072005,-0.0405021,0.27134821)" />
    <linearGradient
       inkscape:collect="always"
       xlink:href="#linearGradient3802"
       id="linearGradient3808"
       x1="165.71429"
       y1="799.50507"
       x2="315.71429"
       y2="799.50507"
       gradientUnits="userSpaceOnUse" />
    <linearGradient
       inkscape:collect="always"
       xlink:href="#linearGradient3802"
       id="linearGradient3810"
       gradientUnits="userSpaceOnUse"
       x1="165.71429"
       y1="799.50507"
       x2="315.71429"
       y2="799.50507"
       gradientTransform="matrix(0.1157782,0,0,0.11518057,69.052145,840.34563)" />
    <linearGradient
       inkscape:collect="always"
       xlink:href="#linearGradient3802"
       id="linearGradient3812"
       gradientUnits="userSpaceOnUse"
       x1="165.71429"
       y1="799.50507"
       x2="315.71429"
       y2="799.50507"
       gradientTransform="matrix(0.1157782,0,0,0.11518057,69.052145,840.34563)" />
    <linearGradient
       inkscape:collect="always"
       xlink:href="#linearGradient3802"
       id="linearGradient3814"
       gradientUnits="userSpaceOnUse"
       x1="165.71429"
       y1="799.50507"
       x2="315.71429"
       y2="799.50507"
       gradientTransform="matrix(0.1157782,0,0,0.11518057,69.052145,840.34563)" />
  </defs>
  <metadata
     id="metadata7">
    <rdf:RDF>
      <cc:Work
         rdf:about="">
        <dc:format>image/svg+xml</dc:format>
        <dc:type
           rdf:resource="http://purl.org/dc/dcmitype/StillImage" />
        <dc:title></dc:title>
      </cc:Work>
    </rdf:RDF>
  </metadata>
  <g
     style="fill:none;stroke:url(#linearGradient3808);stroke-width:3.99692369;stroke-miterlimit:4;stroke-opacity:1;stroke-dasharray:none"
     id="g3834"
     transform="matrix(0.49358588,0,0,0.53193532,-38.546472,-486.4491)" />
  <g
     id="g3018"
     transform="matrix(0.03625107,0,0,0.03651314,32.717345,9.9207251)">
    <path
       style="fill:#0f0f0f"
       d="m -696.80103,157.63382 c -5.28979,-1.69081 -14.75855,-10.27173 -17.85653,-16.1822 -1.68378,-3.2124 -1.78791,-3.25011 -9,-3.25977 -12.11764,-0.0162 -20.9313,-5.38677 -27.06232,-16.49023 -3.31304,-6 -3.31304,-6 -9.27361,-6.60134 -14.79052,-1.49217 -26.15802,-12.63361 -28.32152,-27.758291 -0.62698,-4.38317 -0.74574,-4.5052 -5.73507,-5.89318 -17.80327,-4.95269 -27.09908,-25.85179 -18.72278,-42.09311 3.18121,-6.16824 3.18121,-6.16824 -5.51941,-16.9012 -10.55667,-13.0225697 -10.69318,-13.0656797 -15.4089,-4.86656 -8.9049,15.48276 -14.29132,15.39018 -40.47713,-0.69576 -20.79975,-12.7772797 -23.32581,-15.1559297 -24.04512,-22.6419797 -0.55306,-5.7557803 -2.37743,-2.11079 28.55355,-57.0485803 13.47021,-23.925 31.45736,-55.874999 39.97145,-70.999999 20.69593,-36.76566 23.96249,-39.66762 36.81379,-32.70481 38.5841,20.90477 46.49783,29.85104 38.32269,43.32284 -2.97179,4.89721 -2.4321,5.80805 6.66162,11.24292 9.31185,5.56523 14.23688,7.10262 30.9345,9.6565 10.98826,1.68064 10.98826,1.68064 13.5,-1.65165 10.61603,-14.08406 35.78344,-20.16666 84.01175,-20.3044 23.39046,-0.0668 25.61232,0.20355 54.5,6.63131 28.8082,6.41007 40.55359,4.96402 35.2038,-4.33418 -8.04091,-13.97549 -4.99882,-18.865 21.91717,-35.22713 21.99659,-13.37164 27.48276,-14.45897 34.60402,-6.85828 2.4964,2.66446 82.58397,144.132079 85.36773,150.794539 4.5546,10.9006903 1.31566,15.1861103 -22.55832,29.84676 -25.56239,15.69748 -30.73532,16.23152 -38.75983,4.00143 -7.08628,-10.8001397 -5.28049,-10.6583197 -15.11386,-1.18697 -4.76339,4.58802 -10.79821,9.81006 -13.41071,11.60453 -2.6125,1.79447 -4.74322,3.35355 -4.73494,3.46463 0.008,0.11108 0.66353,2.00196 1.4561,4.20196 6.08191,16.88187 -5.05324,34.33427 -24.15571,37.85986 -6.57312,1.21315 -6.57312,1.21315 -8.43361,7.27373 -3.75757,12.24033 -16.35537,21.366411 -29.49454,21.366411 -0.13496,0 -0.93421,2.3625 -1.77612,5.25 -3.78255,12.97313 -11.06224,19.19983 -24.72976,21.15265 -7.98317,1.14065 -8.01,1.15462 -12.88005,6.70669 -15.85799,18.0788 -35.74651,20.33923 -72.41573,8.2304 -7.91437,-2.61346 -7.91437,-2.61346 -12.3794,2.56909 -7.71742,8.95759 -18.48192,12.06215 -29.5532,8.52337 z m 13.46571,-15.49575 c 1.87404,-1.00296 17.19478,-20.91674 19.71428,-25.62446 5.66055,-10.57684 -9.46338,-24.933681 -18.08889,-17.171421 -5.56767,5.010471 -19.74414,25.910601 -19.74414,29.108471 0,9.09626 11.07073,17.45939 18.11875,13.68741 z m 75.37991,-5.04043 c 4.50786,-1.13509 12.50134,-7.08031 12.50134,-9.29798 0,-0.68537 -10.20639,-6.1628 -22.68087,-12.17208 -26.60622,-12.8169 -27.31913,-13.29143 -27.31913,-18.184091 0,-11.34981 4.8457,-10.69748 37.20238,5.008131 34.91579,16.94779 42.55479,17.80809 47.32051,5.32924 2.44083,-6.39123 3.63688,-5.39611 -29.48822,-24.534141 -35.48357,-20.50062 -38.16116,-23.00952 -31.58012,-29.59055 4.47012,-4.47013 6.29155,-3.75292 39.68491,15.62638 35.91797,20.84442 34.1695,20.02512 41.0071,19.21531 7.95191,-0.94179 12.23803,-5.24114 12.30417,-12.34214 0.0493,-5.28988 0.0493,-5.28988 -35.45073,-26.63341 -19.525,-11.73895 -36.0625,-22.0994 -36.75,-23.02324 -3.46821,-4.66046 0.37324,-12.29745 6.18568,-12.29745 2.24827,0 13.48989,6.23945 41.37367,22.96369 46.52234,27.90334 50.10497,28.86716 57.06569,15.35205 4.84341,-9.4041 -11.52138,-24.48931 -71.19588,-65.62903 -25.22855,-17.39261 -74.277,-45.67098 -79.23499,-45.6821 -6.70704,-0.015 -14.38372,4.13584 -19.46977,10.52756 -22.3265,28.0581 -60.75953,40.1782503 -73.38038,23.14107 -6.54184,-8.83098 -2.66879,-22.33944 13.21101,-46.07749 10.23471,-15.29945 10.20954,-14.98866 1.30401,-16.10133 -11.38692,-1.4227 -20.00243,-4.33891 -29.41734,-9.95728 -5.10333,-3.045429 -9.70918,-5.532069 -10.23524,-5.525869 -0.52605,0.006 -7.21451,11.143699 -14.86323,24.749999 -7.64873,13.6063 -19.96965,35.46567 -27.37982,48.57637 -13.47304,23.8376403 -13.47304,23.8376403 -11.59323,26.1466503 2.43999,2.99707 14.24267,17.1373297 17.06923,20.4498697 1.88114,2.20458 2.44433,2.38624 4,1.29024 13.46213,-9.4843797 28.31167,-7.94992 39.55002,4.08687 4.73943,5.07615 4.73943,5.07615 10,-0.48694 16.40864,-17.3522597 48.76057,-5.17277 48.76057,18.35683 0,3.28456 0.411,4.02297 2.75,4.94064 16.58337,6.50622 23.85071,15.03471 24.99875,29.33698 0.51932,6.46952 0.51932,6.46952 5.35552,8.07585 17.26387,5.73414 25.66217,29.177731 15.6579,43.708551 -2.55786,3.71519 -2.03116,4.19531 7.39148,6.73781 18.11011,4.88663 27.39991,5.91563 35.34501,3.91503 z m -110.69525,-16.64602 c 2.75463,-2.38058 28.06492,-36.952701 29.99076,-40.965321 4.46165,-9.29616 -9.59629,-22.55596 -17.5879,-16.58936 -3.80005,2.83715 -30.97693,39.984021 -31.7167,43.352151 -2.16279,9.84713 12.16342,20.38198 19.31384,14.20253 z m -34.49679,-23.500001 c 1.91893,-1.7855 23.14885,-29.89476 35.44338,-46.92846 6.84639,-9.48546 -4.39098,-24.35016 -15.2562,-20.18079 -0.91838,0.35242 -8.2323,9.46492 -16.25317,20.25 -25.55432,34.36109 -25.05015,33.37283 -20.96571,41.09663 3.89907,7.37324 12.2603,10.202241 17.0317,5.76262 z m -27.44161,-32.5 c 5.01611,-4.20697 14.13505,-18.50318 14.13125,-22.15426 -0.01,-9.56877 -11.75108,-17.45791 -18.71876,-12.57755 -2.96953,2.07994 -13.99518,17.50878 -14.79809,20.70784 -2.38916,9.51917 12.1854,20.06273 19.3856,14.02397 z m 293.52143,-46.61894 c 10.2505,-7.28784 23.67454,-21.6453997 22.43544,-23.9956397 -5.33344,-10.1161203 -53.78641,-95.6354193 -54.18449,-95.6354193 -0.15091,0 -2.50563,0.66261 -5.2327,1.47246 -14.06344,4.176389 -21.03815,3.842909 -47.90469,-2.29049 -22.76104,-5.19614 -26.90749,-5.68807 -47,-5.57594 -27.71207,0.15466 -55.68097,3.65142 -65.08857,8.1376 -6.61978,3.156749 -41.70947,54.860049 -41.83518,61.642519 -0.0762,4.11385 -0.0762,4.11385 6.9984,4.05815 12.99617,-0.10232 28.114,-9.51134 40.60607,-25.27237 7.42637,-9.36971 6.04975,-8.46219 19.23443,-12.68008 14.36883,-4.59672 13.58147,-4.71139 31.30343,4.55903 42.85134,22.41567 90.55857,54.02532 127.28142,84.33356 6.62882,5.47092 7.35036,5.53812 13.38644,1.24662 z m -347.51885,-31.69533 c 44.90896,-79.50476 65.3998,-116.289469 65.50919,-117.600719 0.25889,-3.10312 -30.38752,-20.7868 -32.36178,-18.67349 -3.93931,4.21673 -80.2643,141.7187693 -79.39649,143.0354393 1.2255,1.85937 29.65216,19.3130697 30.88149,18.9609297 0.55,-0.15754 7.46542,-11.7325197 15.36759,-25.72216 z m 415.13241,17.1079803 c 7.975,-4.89165 14.8856,-9.50417 15.35689,-10.25004 0.80818,-1.27905 -76.29923,-140.1645793 -79.71255,-143.5779093 -1.27843,-1.27842 -30.32882,14.84666 -32.19911,17.87286 -0.5058,0.81841 76.55865,139.5296993 79.8146,143.661379 1.40522,1.78317 0.86021,2.03407 16.74017,-7.7062897 z"
       id="path3020"
       inkscape:connector-curvature="0" />
  </g>
</svg>
