<?xml version="1.0" encoding="UTF-8" standalone="no"?>
<!-- Created with Inkscape (http://www.inkscape.org/) -->

<svg xmlns:dc="http://purl.org/dc/elements/1.1/" xmlns:cc="http://creativecommons.org/ns#" xmlns:rdf="http://www.w3.org/1999/02/22-rdf-syntax-ns#"
    xmlns="http://www.w3.org/2000/svg" xmlns:xlink="http://www.w3.org/1999/xlink" version="1.1"
    width="500" height="500" id="svg5347">
  <defs
     id="defs5349">
    <linearGradient
       id="linearGradient3825">
      <stop
         id="stop3827"
         style="stop-color:#444444;stop-opacity:1"
         offset="0" />
      <stop
         id="stop3829"
         style="stop-color:#444444;stop-opacity:0.49803922"
         offset="0.31615311" />
      <stop
         id="stop3831"
         style="stop-color:#444444;stop-opacity:0"
         offset="1" />
    </linearGradient>
    <linearGradient
       id="linearGradient4493">
      <stop
         id="stop4495"
         style="stop-color:#444444;stop-opacity:1"
         offset="0" />
    </linearGradient>
    <linearGradient
       id="linearGradient4379">
      <stop
         id="stop4381"
         style="stop-color:#444444;stop-opacity:0.94117647"
         offset="0" />
      <stop
         id="stop4383"
         style="stop-color:#000000;stop-opacity:0"
         offset="1" />
    </linearGradient>
    <linearGradient
       id="linearGradient4324">
      <stop
         id="stop4326"
         style="stop-color:#444444;stop-opacity:1"
         offset="0" />
      <stop
         id="stop4332"
         style="stop-color:#444444;stop-opacity:0.49803922"
         offset="0.6557377" />
      <stop
         id="stop4328"
         style="stop-color:#444444;stop-opacity:0"
         offset="1" />
    </linearGradient>
    <linearGradient
       x1="48.114197"
       y1="672.10852"
       x2="444.53311"
       y2="672.10852"
       id="linearGradient4330"
       xlink:href="#linearGradient4324"
       gradientUnits="userSpaceOnUse" />
    <linearGradient
       x1="235.71428"
       y1="802.36218"
       x2="435.71429"
       y2="803.79077"
       id="linearGradient4385"
       xlink:href="#linearGradient4379"
       gradientUnits="userSpaceOnUse" />
    <linearGradient
       x1="235.71428"
       y1="802.36218"
       x2="435.71429"
       y2="803.79077"
       id="linearGradient4387"
       xlink:href="#linearGradient4379"
       gradientUnits="userSpaceOnUse" />
    <linearGradient
       x1="235.71428"
       y1="802.36218"
       x2="435.71429"
       y2="803.79077"
       id="linearGradient3847"
       xlink:href="#linearGradient4379"
       gradientUnits="userSpaceOnUse" />
    <linearGradient
       x1="235.71428"
       y1="802.36218"
       x2="435.71429"
       y2="803.79077"
       id="linearGradient3045"
       xlink:href="#linearGradient4379"
       gradientUnits="userSpaceOnUse" />
    <linearGradient
       x1="537.6225"
       y1="1011.5453"
       x2="-391.32187"
       y2="1018.6157"
       id="linearGradient4382"
       xlink:href="#linearGradient3825"
       gradientUnits="userSpaceOnUse"
       gradientTransform="matrix(0.85721834,0,0,0.85721834,39.904987,-697.85268)" />
  </defs>
  <metadata
     id="metadata5352">
    <rdf:RDF>
      <cc:Work
         rdf:about="">
        <dc:format>image/svg+xml</dc:format>
        <dc:type
           rdf:resource="http://purl.org/dc/dcmitype/StillImage" />
        <dc:title></dc:title>
      </cc:Work>
    </rdf:RDF>
  </metadata>
  <g
     transform="translate(0,-552.36218)"
     id="layer1">
    <path
       d=""
       transform="translate(0,552.36218)"
       id="path4224"
       style="fill:#000000;fill-opacity:1;stroke:#000000;stroke-width:11.4285717;stroke-linejoin:bevel;stroke-miterlimit:4;stroke-opacity:1;stroke-dasharray:none" />
    <path
       d=""
       transform="translate(0,552.36218)"
       id="path4226"
       style="fill:#000000;fill-opacity:1;stroke:#000000;stroke-width:11.4285717;stroke-linejoin:bevel;stroke-miterlimit:4;stroke-opacity:1;stroke-dasharray:none" />
    <path
       d="m 234.28572,347.14285 a 20,20 0 1 1 -40,0 20,20 0 1 1 40,0 z"
       transform="matrix(0.93769788,0,0,0.97878904,55.309977,497.38928)"
       id="path4342"
       style="fill:#444444;fill-opacity:1;stroke:#444444;stroke-width:7;stroke-linejoin:bevel;stroke-miterlimit:4;stroke-opacity:1;stroke-dasharray:none" />
    <path
       d="m 252.625,41.09375 c -0.29896,0.01039 -0.63146,0.0625 -1.03125,0.0625 -1.436,0 -1.87253,0.13981 -2.5,0.9375 -0.75343,0.95782 -0.75115,0.97978 -0.65625,34.375 0.0927,32.60382 0.12779,33.43692 0.8125,33.9375 1.54877,1.13228 5.2221,0.41487 5.25,-1.03125 0.003,-0.23435 0.0315,-15.38312 0.0312,-33.65625 -4.8e-4,-32.927475 0.18647,-34.697758 -1.90625,-34.625 z m -24.40625,24.625 c -1.72393,0 -2.28125,0.62386 -2.28125,2.53125 0,0.96979 0.96862,10.92267 2.15625,22.125 2.01279,18.98603 2.21692,20.41025 2.9375,21 0.96604,0.7907 1.75176,0.79613 2.84375,0.0312 1.05167,-0.73663 1.1223,0.41556 -1.59375,-25.40625 -2.12638,-20.21602 -2.14024,-20.28125 -4.0625,-20.28125 z m 46.90625,0 c -2.00751,0 -2.10159,0.41835 -3.46875,13.4375 -0.69761,6.6431 -1.66302,15.86581 -2.15625,20.5 -1.06027,9.96192 -1.09654,10.82109 -0.3125,11.6875 0.32911,0.36363 1.05883,0.65625 1.59375,0.65625 2.06258,0 2.01747,0.22078 4.34375,-21.90625 1.18936,-11.31302 2.15625,-21.17353 2.15625,-21.90625 0,-1.58631 -0.78166,-2.46875 -2.15625,-2.46875 z m -70.59375,3.71875 c -0.86511,0.07636 -1.69601,0.574535 -1.90625,1.4375 -0.24451,1.00356 8.60404,42.75928 9.21875,43.5 0.99584,1.19988 3.96875,0.21582 3.96875,-1.3125 0,-0.34909 -1.30589,-6.78843 -2.90625,-14.3125 -1.60039,-7.52409 -3.57583,-16.75323 -4.375,-20.53125 -0.79912,-3.778 -1.62185,-7.26598 -1.84375,-7.71875 -0.39669,-0.809395 -1.29114,-1.138858 -2.15625,-1.0625 z m 93.625,0 c -0.7592,0.08615 -1.45501,0.482613 -1.71875,1.09375 -0.30197,0.69971 -3.51174,15.52823 -7.875,36.46875 -1.30773,6.2763 -1.32559,6.41663 -0.65625,7.15625 0.78987,0.87281 2.79918,1.01913 3.4375,0.25 0.22993,-0.27707 1.53308,-5.78489 2.90625,-12.21875 7.30373,-34.22112 6.91573,-31.7723 5.25,-32.53125 -0.43057,-0.196174 -0.88823,-0.270441 -1.34375,-0.21875 z m -170.25,4.625 c -0.48072,0.05433 -1.01693,0.329463 -1.71875,0.6875 -2.42559,1.23743 -2.42573,1.99525 0.0937,6.28125 1.06962,1.81958 4.43781,7.63693 7.46875,12.90625 3.03093,5.26934 7.0049,12.19352 8.84375,15.375 1.8389,3.18148 5.97411,10.31538 9.1875,15.875 3.2134,5.55961 6.03881,10.25221 6.28125,10.40625 1.527,0.97024 4.96875,-0.89615 4.96875,-2.6875 0,-0.35803 -2.89525,-5.6652 -6.4375,-11.78125 -11.36714,-19.62637 -18.66999,-32.29181 -22.28125,-38.59375 -3.94633,-6.886627 -4.96408,-8.631749 -6.40625,-8.46875 z m 247,0.03125 c -0.36536,-0.01336 -0.69786,0.0535 -0.9375,0.21875 -0.43489,0.29988 -2.20164,3.22834 -8.21875,13.65625 -11.26924,19.53014 -18.08928,31.34303 -21.65625,37.53125 -2.15716,3.74233 -3.90625,7.09186 -3.90625,7.4375 0,0.76113 0.58479,1.54711 1.78125,2.34375 0.9337,0.6217 2.44281,0.76704 3.15625,0.3125 0.38294,-0.24397 3.46207,-5.46456 17.03125,-29 2.69406,-4.6728 6.05763,-10.54571 7.5,-13.03125 1.44239,-2.48553 4.09537,-7.06208 5.90625,-10.1875 1.81087,-3.12541 3.3125,-6.01669 3.3125,-6.40625 0,-1.2779 -2.3855,-2.817093 -3.96875,-2.875 z M 320.71875,75.5 c -1.11013,0.183649 -1.72524,1.549881 -3.0625,5.65625 -2.21485,6.80118 -10.27189,31.60525 -11.125,34.25 -0.8607,2.66842 -0.86043,2.95207 0.0312,3.84375 0.78951,0.78952 1.83324,0.90128 2.875,0.34375 0.4141,-0.22161 1.10407,-1.61255 1.78125,-3.6875 1.34945,-4.13475 9.28458,-28.61472 11.09375,-34.21875 1.46612,-4.54136 1.38249,-5.61355 -0.40625,-6.0625 -0.25011,-0.06277 -0.47856,-0.105629 -0.6875,-0.125 -0.18282,-0.01695 -0.34141,-0.02624 -0.5,0 z M 182.25,75.5625 c -1.2319,-0.05638 -2.59375,0.786913 -2.59375,1.90625 0,0.29103 1.12181,3.98611 2.5,8.21875 1.37819,4.23264 4.33973,13.32743 6.5625,20.1875 2.22274,6.86007 4.28141,12.83385 4.5625,13.28125 0.34365,0.54696 0.83882,0.8125 1.5625,0.8125 1.10852,0 2.53125,-1.09239 2.53125,-1.9375 0,-1.26022 -13.41421,-41.685 -13.96875,-42.09375 -0.32569,-0.240052 -0.74562,-0.356207 -1.15625,-0.375 z m -21.96875,8.25 c -0.11541,-0.0073 -0.22537,0.01177 -0.34375,0.03125 -0.47354,0.07792 -0.96281,0.36906 -1.46875,0.875 -1.06673,1.06675 -1.01515,1.50351 0.5625,4.9375 0.57668,1.2552 3.36238,7.48079 6.1875,13.84375 2.82512,6.36296 5.42467,12.23589 5.78125,13.03125 0.35658,0.79538 1.39142,3.13848 2.3125,5.21875 0.92104,2.08026 1.92822,4.08195 2.25,4.4375 1.16973,1.29254 3.75,0.32352 3.75,-1.40625 0,-1.17633 -17.21234,-39.9322 -18,-40.53125 -0.3427,-0.260632 -0.68503,-0.415647 -1.03125,-0.4375 z M 342.875,83.84375 c -0.99332,0.07909 -1.74393,1.256305 -3.03125,4.1875 -1.76412,4.01694 -2.68059,6.02991 -4.90625,10.96875 -7.00421,15.54254 -11.03125,24.94552 -11.03125,25.75 0,0.57652 0.32717,1.19131 0.8125,1.53125 1.0578,0.74102 2.20926,0.68945 2.90625,-0.0937 0.30969,-0.34798 4.49828,-9.47365 9.3125,-20.28125 7.72518,-17.34242 8.6944,-19.73038 8.34375,-20.5 -0.21854,-0.47961 -0.78121,-1.08467 -1.28125,-1.3125 -0.4089,-0.186307 -0.79389,-0.276362 -1.125,-0.25 z m -223.75,23.5625 c -0.93813,0.12453 -1.83788,0.9675 -1.9375,2 -0.12813,1.32806 -0.22402,1.17388 12.9375,19.21875 1.52281,2.08784 4.14715,5.68206 5.8125,7.96875 1.66537,2.28669 3.87583,5.33964 4.9375,6.78125 1.62249,2.20318 2.12239,2.625 3,2.625 1.05297,0 2.53125,-1.39589 2.53125,-2.375 0,-0.70806 -25.57041,-35.74298 -26.34375,-36.09375 -0.29272,-0.13277 -0.62479,-0.16651 -0.9375,-0.125 z m 265.15625,0 c -1.4094,-0.0884 -3.53089,2.83212 -14.4375,17.84375 -6.99962,9.63408 -12.81505,17.80766 -12.90625,18.15625 -0.0911,0.34859 0.19217,1.07477 0.625,1.625 0.61157,0.77751 1.02896,0.99185 1.90625,0.90625 1.03882,-0.10138 2.14893,-1.51987 13.875,-17.65625 13.68205,-18.828 13.8498,-19.14355 11.875,-20.4375 -0.34766,-0.22779 -0.61225,-0.4171 -0.9375,-0.4375 z m 17.9375,14.78125 c -1.04852,0.10986 -2.73094,1.98996 -8.53125,8.40625 -2.48553,2.74948 -5.40638,6.01466 -6.5,7.25 -2.89736,3.27278 -14.17493,15.84619 -14.71875,16.40625 -0.97374,1.00279 -0.37318,3.3428 0.96875,3.75 1.42689,0.43296 1.97653,-0.0811 12.28125,-11.625 1.87762,-2.10338 6.25887,-6.99624 9.75,-10.875 3.49114,-3.87875 6.9731,-7.74942 7.71875,-8.59375 1.61347,-1.82699 1.7331,-2.98756 0.40625,-4.03125 -0.54801,-0.43107 -0.8984,-0.73744 -1.375,-0.6875 z m -301.1875,0.0937 c -1.175854,-0.0692 -2.34375,0.88573 -2.34375,2.25 0,1.06507 -0.829643,0.11147 13.71875,16.21875 6.26354,6.93469 12.18408,13.52058 13.15625,14.625 0.97216,1.10443 2.11993,2.1783 2.53125,2.40625 0.81099,0.44939 2.3517,0.0863 2.84375,-0.6875 0.95119,-1.49595 0.47715,-2.13658 -13.8125,-18.03125 -7.75351,-8.62434 -14.49416,-15.9748 -14.96875,-16.34375 -0.35017,-0.27223 -0.73305,-0.41442 -1.125,-0.4375 z M 84,138.84375 c -0.219514,0.0398 -0.363809,0.20628 -0.625,0.34375 -1.03752,0.54608 -1.3055,1.00866 -1.3125,2.1875 -0.0046,0.80538 0.95616,1.85362 5.5,5.9375 3.03234,2.72541 6.90359,6.19054 8.59375,7.71875 1.69016,1.5282 6.5186,5.90988 10.75,9.71875 8.1038,7.2945 8.74591,7.66029 10.21875,6.1875 1.20546,-1.20542 0.91565,-2.38853 -1,-4.125 -0.9445,-0.85619 -5.28171,-4.78241 -9.65625,-8.71875 C 87.312411,140.85609 84.951228,138.67144 84,138.84375 z m 334.9375,0.0937 c -0.14879,-0.007 -0.29932,-0.0115 -0.4375,0.0312 -0.66812,0.20692 -3.08597,2.27755 -8.53125,7.25 -0.8948,0.81711 -6.67964,5.99412 -12.84375,11.53125 -6.16412,5.53709 -11.32265,10.26037 -11.46875,10.46875 -0.48681,0.69435 -0.2767,1.85612 0.46875,2.65625 1.35358,1.4529 2.23978,1.04316 6.59375,-2.9375 2.23234,-2.04095 6.39803,-5.81814 9.28125,-8.40625 19.27239,-17.29954 19.15625,-17.18862 19.15625,-18.25 0,-1.12867 -1.17722,-2.29747 -2.21875,-2.34375 z m 14.90625,18.25 c -0.65293,0 -4.05009,2.35554 -16.125,11.15625 -11.36645,8.28434 -13.59142,9.827 -13.96875,9.59375 -0.22796,-0.14085 -0.29627,-0.0703 -0.15625,0.15625 0.3,0.48535 -1.20912,1.58908 -1.75,1.28125 -0.21608,-0.1232 -0.27102,-0.0988 -0.125,0.0625 0.14606,0.16141 -0.68501,1.02204 -1.875,1.90625 -1.18994,0.88431 -2.1875,1.7432 -2.1875,1.90625 0,0.16304 -0.0807,0.50291 -0.1875,0.78125 -0.1068,0.27834 0.14299,0.93548 0.5625,1.46875 1.29288,1.64364 2.22848,1.34433 7.78125,-2.75 2.78378,-2.05261 9.2676,-6.79095 14.4375,-10.53125 16.75371,-12.12089 15.75,-11.31708 15.75,-12.75 0,-1.01387 -1.2047,-2.28125 -2.15625,-2.28125 z m -364.5,0.0937 c -1.131768,-0.0124 -2.125,0.97305 -2.125,2.25 0,1.38596 -2.33024,-0.43031 22.59375,17.71875 8.05691,5.86689 12.97387,9.20975 13.53125,9.21875 1.26521,0.0219 2.21875,-0.99084 2.21875,-2.375 0,-0.92716 -0.26798,-1.35742 -1.1875,-2 -0.64624,-0.45158 -2.64791,-1.89941 -4.4375,-3.21875 -1.78957,-1.31926 -5.67361,-4.18081 -8.65625,-6.34375 -2.98263,-2.16302 -5.58241,-4.0612 -5.78125,-4.21875 -2.89872,-2.29667 -15.0501,-10.80378 -15.65625,-10.96875 -0.164722,-0.0448 -0.338319,-0.0607 -0.5,-0.0625 z M 466.875,164.8125 c -0.93554,-0.0315 -2.42304,0.61596 -5.15625,2.1875 -5.75118,3.30689 -37.88253,21.86933 -46.09375,26.625 -3.99251,2.31235 -7.39163,4.53201 -7.71875,5.03125 -0.54959,0.83879 -0.54677,0.98855 0.1875,2.5 0.43084,0.88671 1.147,1.75775 1.59375,1.9375 0.44678,0.17926 1.04548,0.25525 1.34375,0.15625 0.46605,-0.15473 12.9409,-7.28533 33.09375,-18.9375 4.54199,-2.62617 20.37637,-11.7792 23.75,-13.71875 0.54265,-0.31202 1.18233,-0.99215 1.40625,-1.53125 0.34469,-0.82978 0.26708,-1.18444 -0.4375,-2.34375 -0.45789,-0.75332 -0.97818,-1.5101 -1.1875,-1.65625 -0.21975,-0.15334 -0.4694,-0.23951 -0.78125,-0.25 z m -430.625,0.0312 c -0.713935,0.0134 -0.928678,0.32733 -1.65625,1.5 -0.546821,0.88122 -1,1.8351 -1,2.125 0,0.84145 1.79003,2.26593 4.90625,3.9375 1.590741,0.85327 3.284141,1.82048 3.78125,2.15625 0.843598,0.56971 28.94187,16.82216 43.5625,25.1875 4.53488,2.59463 6.7461,3.64736 7.25,3.5 0.84479,-0.24696 1.77157,-1.34515 2.375,-2.78125 0.36266,-0.86313 0.33211,-1.1624 -0.25,-1.9375 -0.37737,-0.50234 -6.06321,-3.99749 -12.625,-7.78125 -6.5618,-3.78385 -14.62535,-8.44732 -17.90625,-10.34375 -8.48017,-4.90165 -13.459474,-7.75446 -19.875,-11.4375 -3.082059,-1.7693 -5.719205,-3.37905 -5.84375,-3.5625 -0.12452,-0.18353 -0.911542,-0.4068 -1.78125,-0.5 -0.385725,-0.0413 -0.699522,-0.067 -0.9375,-0.0625 z m 9.53125,33.21875 c -1.784489,0 -2.872075,3.0941 -1.40625,4 0.347979,0.21509 9.33068,4.25641 19.96875,9 10.63808,4.7435 19.61155,8.64255 19.9375,8.65625 1.71519,0.0745 2.89895,-2.60108 1.6875,-3.8125 C 85.2545,215.19201 46.674917,198.0625 45.78125,198.0625 z m 411.71875,0 c -1.25235,0 -39.67469,17.23529 -40.40625,18.125 -0.74657,0.90797 -0.54865,2.00382 0.53125,2.9375 0.40241,0.34793 0.95845,0.625 1.21875,0.625 0.54158,0 39.49914,-17.26782 40.1875,-17.8125 0.64595,-0.51115 0.57952,-2.44031 -0.125,-3.21875 -0.32907,-0.36363 -0.96955,-0.65625 -1.40625,-0.65625 z M 37.34375,220.09375 c -1.758935,0 -2.819851,2.21936 -1.6875,3.53125 0.424658,0.49196 2.827369,1.46006 6.8125,2.75 18.588289,6.01699 33.30707,10.79241 33.625,10.90625 0.74049,0.26513 2.04149,0.17493 2.71875,-0.1875 0.97365,-0.52119 1.00019,-3.07513 0.03125,-3.59375 -0.37541,-0.20084 -4.24665,-1.52421 -8.59375,-2.9375 -4.34709,-1.41313 -9.27859,-3.03415 -10.96875,-3.59375 -10.752708,-3.56019 -21.335227,-6.875 -21.9375,-6.875 z m 428.875,0.15625 c -0.9405,-0.057 -2.37212,0.29173 -4.65625,1.03125 -3.92331,1.27015 -10.20997,3.30414 -28.15625,9.125 -4.70353,1.52559 -8.83711,2.96252 -9.1875,3.21875 -0.75019,0.54853 -0.86602,2.46372 -0.1875,3.28125 0.92882,1.11918 0.79873,1.13735 20.28125,-5.21875 3.47974,-1.1353 10.0442,-3.24476 14.59375,-4.71875 8.98866,-2.91197 9.66338,-3.31895 9,-5.3125 -0.2981,-0.89593 -0.747,-1.3493 -1.6875,-1.40625 z M 31.125,242.875 c -0.570599,0 -1.243675,0.25365 -1.5,0.5625 -0.620042,0.74715 -0.608338,2.59864 0.03125,3.21875 0.281708,0.2732 8.154399,2.14316 17.5,4.15625 9.345595,2.0131 17.32106,3.75365 17.71875,3.84375 0.39768,0.0902 1.44326,0.25559 2.3125,0.375 2.509452,0.43724 6.247826,2.19012 7.03125,-0.28125 0.822869,-2.59581 1.036672,-2.87497 -2.34375,-3.71875 C 67.370715,250.31923 63.128761,249.40878 58,248.34375 56.01158,247.94009 49.397211,246.54894 43.28125,245.25 37.165254,243.95114 31.695607,242.875 31.125,242.875 z m 441.0625,0 c -0.5709,0 -7.63236,1.38892 -15.65625,3.09375 -8.02391,1.70484 -14.97165,3.1738 -15.46875,3.25 -0.49711,0.0761 -2.52798,0.46585 -4.5,0.875 -1.97202,0.40906 -3.92965,0.64655 -4.34375,0.53125 -0.53836,-0.14984 -0.60065,-0.0869 -0.25,0.15625 0.35481,0.24593 -0.0209,0.46391 -1.34375,0.78125 -1.00553,0.24113 -2.05408,0.68103 -2.3125,1 -0.25839,0.31889 -0.27508,0.47079 -0.0625,0.34375 0.25089,-0.14993 0.31845,0.13324 0.21875,0.8125 -0.11754,0.80081 0.0854,1.28128 0.875,2.03125 0.66872,0.63512 0.82812,0.90242 0.40625,0.75 -0.41136,-0.14881 -0.58686,-0.0854 -0.4375,0.15625 0.12986,0.21022 0.51587,0.26053 0.84375,0.125 0.32783,-0.13552 0.91481,-0.33189 1.3125,-0.4375 0.39769,-0.10561 0.8949,-0.3219 1.09375,-0.46875 0.3924,-0.2899 3.83271,-1.0625 4.71875,-1.0625 0.3366,0 0.44419,0.19006 0.28125,0.46875 -0.14533,0.24851 0.0554,0.16572 0.4375,-0.15625 0.38213,-0.32206 1.09665,-0.67719 1.59375,-0.78125 10.4184,-2.18291 33.48112,-7.19691 33.71875,-7.34375 0.17615,-0.10886 0.47032,-0.60479 0.65625,-1.09375 0.51982,-1.36726 -0.44553,-3.03125 -1.78125,-3.03125 z m -39.625,14.46875 c -0.19884,0 -0.608,0.1823 -0.90625,0.375 -0.29828,0.1928 -0.38635,0.34375 -0.1875,0.34375 0.19883,0 0.60798,-0.15095 0.90625,-0.34375 0.29826,-0.1927 0.38634,-0.375 0.1875,-0.375 z M 27.71875,266.1875 c -0.648146,0.006 -1.091513,0.0692 -1.3125,0.1875 -1.476815,0.79028 -1.181567,3.79159 0.40625,4.15625 0.454403,0.10432 9.870497,1.14154 20.90625,2.3125 11.035751,1.17106 20.62889,2.1644 21.34375,2.1875 1.54561,0.0489 2.59375,-0.91276 2.59375,-2.375 0,-2.13996 1.787537,-1.88235 -41.40625,-6.34375 -1.031285,-0.10659 -1.883104,-0.13108 -2.53125,-0.125 z m 448.3125,0.0312 c -0.44489,-0.10005 -10.38308,0.81774 -22.0625,2.0625 -17.06972,1.81911 -21.33644,2.39899 -21.8125,2.875 -0.7784,0.77844 -0.74267,2.29788 0.0625,3.1875 0.35394,0.39115 0.8896,0.71875 1.1875,0.71875 0.87617,0 42.09598,-4.3503 42.9375,-4.53125 0.42236,-0.0908 0.9711,-0.65191 1.21875,-1.25 0.37984,-0.91696 0.37253,-1.24059 -0.125,-2 -0.32438,-0.49513 -0.96135,-0.9626 -1.40625,-1.0625 z M 2.15625,288.8125 c -1.0894915,1.08952 -1.48670616,1.58222 -1.34375,3.34375 0.115142,1.19848 0.380325,1.99645 0.8125,2.3125 0.537485,0.39291 6.8182931,0.47675 34.125,0.46875 18.404627,-0.003 33.65619,-0.13518 33.875,-0.28125 1.34901,-0.90077 1.6117,-3.83573 0.46875,-5.0625 l -0.71875,-0.78125 -33.625,0 -33.59375,0 z m 431.65625,0 -0.75,0.75 c -0.63712,0.63708 -0.73991,1.07287 -0.59375,2.59375 0.11515,1.19848 0.41154,1.99645 0.84375,2.3125 0.5373,0.39289 6.78672,0.46875 34.03125,0.46875 21.84014,0 33.64662,-0.13567 34.09375,-0.375 0.76866,-0.41138 1.27249,-2.41532 0.9375,-3.75 -0.5391,-2.14802 1.73323,-2 -34.96875,-2 l -33.59375,0 z"
       transform="translate(0,552.36218)"
       id="path3049"
       style="fill:url(#linearGradient4382);fill-opacity:1" />
    <path
       d="m 241.60769,828.88381 -32.967,-153.85618 60.07529,149.86328 z"
       id="path3797"
       style="fill:#444444;fill-opacity:1;stroke:#444444;stroke-width:0.96478295;stroke-linecap:butt;stroke-linejoin:miter;stroke-miterlimit:4;stroke-opacity:1;stroke-dasharray:none" />
    <g
       id="g4568"
       style="fill:#444444;fill-opacity:1">
      <path
         d="m 176.19924,679.19648 3.21429,-1.33927 -18.11015,-41.97172 -3.62482,1.65528 z"
         id="path4417"
         style="fill:#444444;fill-opacity:1;stroke:#444444;stroke-width:1px;stroke-linecap:butt;stroke-linejoin:miter;stroke-opacity:1" />
      <path
         d="m 193.66071,672.1836 3.66072,-1.1607 -14.10716,-42.94642 -3.75,1.25 z"
         id="path4419"
         style="fill:#444444;fill-opacity:1;stroke:#444444;stroke-width:1px;stroke-linecap:butt;stroke-linejoin:miter;stroke-opacity:1" />
      <path
         d="m 212.23214,667.09432 3.75001,-0.80356 -9.91073,-44.55356 -3.83929,0.80357 z"
         id="path4423"
         style="fill:#444444;fill-opacity:1;stroke:#444444;stroke-width:1px;stroke-linecap:butt;stroke-linejoin:miter;stroke-opacity:1" />
      <path
         d="m 248.79236,662.72766 5.87228,0.24467 -0.45965,-69.6717 -6.408,0.17114 z"
         id="path4425"
         style="fill:#444444;fill-opacity:1;stroke:#444444;stroke-width:1px;stroke-linecap:butt;stroke-linejoin:miter;stroke-opacity:1" />
      <path
         d="m 230.91996,664.06386 3.62374,-0.29848 -5.1416,-45.59435 -4.19644,0.62499 z"
         id="path4429"
         style="fill:#444444;fill-opacity:1;stroke:#444444;stroke-width:1px;stroke-linecap:butt;stroke-linejoin:miter;stroke-opacity:1" />
      <rect
         width="68.942909"
         height="4.7982244"
         ry="0"
         x="-501.74503"
         y="841.19696"
         transform="scale(-1,1)"
         id="rect4437"
         style="fill:#444444;fill-opacity:1;stroke:#444444;stroke-width:1.125;stroke-linejoin:bevel;stroke-miterlimit:4;stroke-opacity:1;stroke-dasharray:none" />
      <path
         d="m 432.20412,826.97703 -0.44643,-3.39285 45,-5.26786 0.80357,3.57143 z"
         id="path4439"
         style="fill:#444444;fill-opacity:1;stroke:#444444;stroke-width:1px;stroke-linecap:butt;stroke-linejoin:miter;stroke-opacity:1" />
      <path
         d="m 432.20412,826.97703 -0.44643,-3.39285 45,-5.26786 0.80357,3.57143 z"
         id="path4441"
         style="fill:#444444;fill-opacity:1;stroke:#444444;stroke-width:1px;stroke-linecap:butt;stroke-linejoin:miter;stroke-opacity:1" />
      <path
         d="m 429.88269,807.86989 -1.33929,-3.92856 44.375,-8.66072 0.98215,3.57143 z"
         id="path4443"
         style="fill:#444444;fill-opacity:1;stroke:#444444;stroke-width:1px;stroke-linecap:butt;stroke-linejoin:miter;stroke-opacity:1" />
      <path
         d="m 429.88269,807.86989 -1.33929,-3.92856 44.375,-8.66072 0.98215,3.57143 z"
         id="path4445"
         style="fill:#444444;fill-opacity:1;stroke:#444444;stroke-width:1px;stroke-linecap:butt;stroke-linejoin:miter;stroke-opacity:1" />
      <path
         d="m 424.7934,789.83417 -1.51785,-3.6607 43.30357,-14.10715 1.60714,3.57143 z"
         id="path4447"
         style="fill:#444444;fill-opacity:1;stroke:#444444;stroke-width:1px;stroke-linecap:butt;stroke-linejoin:miter;stroke-opacity:1" />
      <path
         d="m 424.7934,789.83417 -1.51785,-3.6607 43.30357,-14.10715 1.60714,3.57143 z"
         id="path4449"
         style="fill:#444444;fill-opacity:1;stroke:#444444;stroke-width:1px;stroke-linecap:butt;stroke-linejoin:miter;stroke-opacity:1" />
      <path
         d="m 418.45412,772.06632 -1.96429,-3.57142 41.25,-18.66072 1.875,3.21429 z"
         id="path4451"
         style="fill:#444444;fill-opacity:1;stroke:#444444;stroke-width:1px;stroke-linecap:butt;stroke-linejoin:miter;stroke-opacity:1" />
      <path
         d="m 409.88269,755.81632 -2.58928,-4.55356 59.55357,-34.82143 3.125,4.46429 z"
         id="path4453"
         style="fill:#444444;fill-opacity:1;stroke:#444444;stroke-width:1px;stroke-linecap:butt;stroke-linejoin:miter;stroke-opacity:1" />
      <path
         d="m 418.45412,772.06632 -1.96429,-3.57142 41.25,-18.66072 1.875,3.21429 z"
         id="path4455"
         style="fill:#444444;fill-opacity:1;stroke:#444444;stroke-width:1px;stroke-linecap:butt;stroke-linejoin:miter;stroke-opacity:1" />
      <path
         d="m 399.25769,738.67346 -1.96428,-2.85713 36.60714,-26.96429 2.32143,2.94643 z"
         id="path4457"
         style="fill:#444444;fill-opacity:1;stroke:#444444;stroke-width:1px;stroke-linecap:butt;stroke-linejoin:miter;stroke-opacity:1" />
      <path
         d="m 387.56126,723.85203 -2.85714,-2.4107 34.28571,-30.53571 2.14286,2.76785 z"
         id="path4459"
         style="fill:#444444;fill-opacity:1;stroke:#444444;stroke-width:1px;stroke-linecap:butt;stroke-linejoin:miter;stroke-opacity:1" />
      <path
         d="m 359.43626,698.04846 -3.03572,-1.7857 26.9643,-36.96428 2.94643,2.05357 z"
         id="path4461"
         style="fill:#444444;fill-opacity:1;stroke:#444444;stroke-width:1px;stroke-linecap:butt;stroke-linejoin:miter;stroke-opacity:1" />
      <path
         d="m 374.1684,710.72704 -2.67857,-2.58928 30.98214,-34.37499 3.12501,2.85713 z"
         id="path4463"
         style="fill:#444444;fill-opacity:1;stroke:#444444;stroke-width:1px;stroke-linecap:butt;stroke-linejoin:miter;stroke-opacity:1" />
      <path
         d="m 326.80845,679.91077 -3.21429,-1.33927 18.11015,-41.97172 3.62482,1.65528 z"
         id="path4465"
         style="fill:#444444;fill-opacity:1;stroke:#444444;stroke-width:1px;stroke-linecap:butt;stroke-linejoin:miter;stroke-opacity:1" />
      <path
         d="m 309.60154,672.26311 -3.65931,-1.17713 14.10174,-43.55447 3.74856,1.26769 z"
         id="path4467"
         style="fill:#444444;fill-opacity:1;stroke:#444444;stroke-width:1.00686085px;stroke-linecap:butt;stroke-linejoin:miter;stroke-opacity:1" />
      <path
         d="m 344.62399,689.20084 -4.60959,-3.03833 34.5523,-59.06509 4.64023,2.44398 z"
         id="path4469"
         style="fill:#444444;fill-opacity:1;stroke:#444444;stroke-width:1px;stroke-linecap:butt;stroke-linejoin:miter;stroke-opacity:1" />
      <path
         d="m 291.02809,667.30353 -3.75001,-0.80356 9.91073,-44.55356 3.83929,0.80357 z"
         id="path4471"
         style="fill:#444444;fill-opacity:1;stroke:#444444;stroke-width:1px;stroke-linecap:butt;stroke-linejoin:miter;stroke-opacity:1" />
      <path
         d="m 272.01342,664.19013 -3.62374,-0.29848 5.1416,-45.59435 4.19644,0.62499 z"
         id="path4519"
         style="fill:#444444;fill-opacity:1;stroke:#444444;stroke-width:1px;stroke-linecap:butt;stroke-linejoin:miter;stroke-opacity:1" />
    </g>
    <g
       id="g3929"
       style="fill:#444444;fill-opacity:1">
      <rect
         width="69.657188"
         height="9.9768152"
         ry="0"
         x="0.9055478"
         y="838.09991"
         id="rect4385"
         style="fill:#444444;fill-opacity:1;stroke:none" />
      <path
         d="m 71.214695,830.83272 1.017448,-9.63477 -46.796218,-6.27187 -1.461395,9.89944 z"
         id="path4391"
         style="fill:#444444;fill-opacity:1;stroke:none" />
      <path
         d="m 92.619925,758.25875 5.114665,-8.4679 -60.94253,-34.69516 -4.892767,7.62102 z"
         id="path4405"
         style="fill:#444444;fill-opacity:1;stroke:none" />
      <path
         d="m 73.936632,812.4462 2.289076,-8.82414 -45.807015,-11.67939 -2.330675,8.93853 z"
         id="path3063"
         style="fill:#444444;fill-opacity:1;stroke:none" />
      <path
         d="m 77.301275,794.0317 3.34539,-8.55953 -44.946636,-16.95933 -3.532877,9.40008 z"
         id="path3067"
         style="fill:#444444;fill-opacity:1;stroke:none" />
      <path
         d="m 102.55508,741.75631 5.74451,-7.67565 -38.097466,-27.5876 -5.827386,7.50604 z"
         id="path3069"
         style="fill:#444444;fill-opacity:1;stroke:none" />
      <path
         d="m 84.246074,775.59641 3.34539,-8.68579 -42.96966,-18.65313 -4.090256,8.68579 z"
         id="path3071"
         style="fill:#444444;fill-opacity:1;stroke:none" />
      <path
         d="m 114.2981,726.60402 5.87078,-7.0443 -35.014704,-29.89108 -7.120715,6.91802 z"
         id="path3073"
         style="fill:#444444;fill-opacity:1;stroke:none" />
      <path
         d="m 126.04112,713.72457 8.14363,-6.28668 -31.60544,-35.57319 -7.120718,6.91802 z"
         id="path3075"
         style="fill:#444444;fill-opacity:1;stroke:none" />
      <path
         d="m 141.44594,700.71885 8.14363,-6.28668 -27.43856,-36.96215 -8.76221,5.52906 z"
         id="path3077"
         style="fill:#444444;fill-opacity:1;stroke:none" />
      <path
         d="m 157.35331,689.95023 8.61907,-4.85558 -35.98542,-60.18966 -8.00922,4.22748 z"
         id="path3081"
         style="fill:#444444;fill-opacity:1;stroke:none" />
    </g>
    <path
       d="m 173.74673,680.7449 9.63513,-3.60628 -19.71269,-43.31011 -8.84383,4.51114 z"
       id="path3083"
       style="fill:#f6e103;fill-opacity:1;stroke:none" />
    <path
       d="m 190.51365,673.87331 9.96377,-2.5621 -14.99925,-45.15947 -9.27309,3.54591 z"
       id="path3085"
       style="fill:#f6e103;fill-opacity:1;stroke:none" />
    <path
       d="m 208.92626,668.79281 10.3022,-2.2538 -10.55913,-46.44576 -9.79368,2.22842 z"
       id="path3087"
       style="fill:#f6e103;fill-opacity:1;stroke:none" />
    <path
       d="m 227.72128,665.26559 10.50795,-0.89327 -4.42201,-47.4252 -10.00045,0.93431 z"
       id="path3089"
       style="fill:#f6e103;fill-opacity:1;stroke:none" />
    <path
       d="m 246.05198,663.44874 10.01569,0.12732 -0.0126,-70.94739 -9.99075,0.0884 z"
       id="path3091"
       style="fill:#f6e103;fill-opacity:1;stroke:none" />
    <rect
       width="71.442902"
       height="10.333958"
       ry="0"
       x="-503.11124"
       y="837.7428"
       transform="scale(-1,1)"
       id="rect3093"
       style="fill:#444444;fill-opacity:1;stroke:none" />
    <path
       d="m 431.73066,830.83272 -1.01745,-9.63477 46.79622,-6.27187 1.4614,9.89944 z"
       id="path3095"
       style="fill:#444444;fill-opacity:1;stroke:none" />
    <path
       d="m 410.71006,758.67405 -5.29855,-8.45821 61.07399,-35.89592 5.06138,7.60791 z"
       id="path3097"
       style="fill:#444444;fill-opacity:1;stroke:none" />
    <path
       d="m 429.00873,812.4462 -2.28908,-8.82414 45.80701,-11.67939 2.33068,8.93853 z"
       id="path3099"
       style="fill:#444444;fill-opacity:1;stroke:none" />
    <path
       d="m 425.64408,794.0317 -3.34539,-8.55953 44.94664,-16.95933 3.53288,9.40008 z"
       id="path3101"
       style="fill:#444444;fill-opacity:1;stroke:none" />
    <path
       d="m 400.39028,741.75631 -5.74451,-7.67565 38.09746,-27.5876 5.82739,7.50604 z"
       id="path3103"
       style="fill:#444444;fill-opacity:1;stroke:none" />
    <path
       d="m 418.69928,775.59641 -3.34539,-8.68579 42.96966,-18.65313 4.09026,8.68579 z"
       id="path3105"
       style="fill:#444444;fill-opacity:1;stroke:none" />
    <path
       d="m 388.03249,726.24688 -5.9703,-7.11241 35.60827,-30.18011 7.24144,6.98491 z"
       id="path3107"
       style="fill:#444444;fill-opacity:1;stroke:none" />
    <path
       d="m 377.12955,713.72457 -8.36894,-6.50123 32.47986,-36.78721 7.31773,7.15411 z"
       id="path3109"
       style="fill:#444444;fill-opacity:1;stroke:none" />
    <path
       d="m 361.8323,701.22393 -8.22397,-6.54625 27.70926,-38.48829 8.84865,5.75735 z"
       id="path3111"
       style="fill:#444444;fill-opacity:1;stroke:none" />
    <path
       d="m 345.28487,690.70784 -8.81697,-4.93099 36.81167,-61.1244 8.19312,4.29313 z"
       id="path3113"
       style="fill:#f6e103;fill-opacity:1;stroke:none" />
    <path
       d="m 329.19527,681.53148 -9.46958,-4.02096 22.58357,-43.67665 8.63975,4.6381 z"
       id="path3115"
       style="fill:#f6e103;fill-opacity:1;stroke:none" />
    <path
       d="m 313.29281,674.89522 -9.2216,-3.53222 14.55475,-45.22313 8.78223,3.25415 z"
       id="path3117"
       style="fill:#f6e103;fill-opacity:1;stroke:none" />
    <path
       d="m 294.0191,668.79281 -10.3022,-2.2538 10.55913,-46.44576 9.79368,2.22842 z"
       id="path3119"
       style="fill:#f6e103;fill-opacity:1;stroke:none" />
    <path
       d="m 275.22408,665.26559 -10.50795,-0.89327 4.42201,-47.4252 10.00045,0.93431 z"
       id="path3121"
       style="fill:#f6e103;fill-opacity:1;stroke:none" />
  </g>
</svg>
