<?xml version="1.0" encoding="UTF-8" standalone="no"?>
<!-- Created with Inkscape (http://www.inkscape.org/) -->

<svg
   xmlns:dc="http://purl.org/dc/elements/1.1/"
   xmlns:cc="http://creativecommons.org/ns#"
   xmlns:rdf="http://www.w3.org/1999/02/22-rdf-syntax-ns#"
   xmlns:svg="http://www.w3.org/2000/svg"
   xmlns="http://www.w3.org/2000/svg"
   version="1.1"
   width="500"
   height="500"
   id="svg2">
  <defs
     id="defs4" />
  <metadata
     id="metadata7">
    <rdf:RDF>
      <cc:Work
         rdf:about="">
        <dc:format>image/svg+xml</dc:format>
        <dc:type
           rdf:resource="http://purl.org/dc/dcmitype/StillImage" />
        <dc:title></dc:title>
      </cc:Work>
    </rdf:RDF>
  </metadata>
  <g
     transform="translate(0,-552.36218)"
     id="layer1">
    <path
       d="m 355.46975,556.58878 -193.2826,0 c -138.832534,0 -139.981049,488.72892 5e-5,488.72892 l 197.42434,0 M 472.5915,800.99097 c 0,134.73491 -51.03051,243.95923 -113.97981,243.95923 -62.94932,0 -113.97983,-109.22432 -113.97983,-243.95923 0,-134.73493 51.03051,-243.95915 113.97983,-243.95915 62.9493,0 113.97981,109.22422 113.97981,243.95915 z"
       id="path3774"
       style="fill:#444444;fill-opacity:1;stroke:#444444;stroke-width:1.36671448px;stroke-linecap:butt;stroke-linejoin:miter;stroke-opacity:1" />
    <path
       d="m 213.95339,1049.1726 c 0,0 -205.8451641,-209.01907 -18.57143,-499.33522"
       id="path3912"
       style="fill:none;stroke:#ffffff;stroke-width:10.64379787;stroke-linecap:butt;stroke-linejoin:miter;stroke-miterlimit:4;stroke-opacity:1;stroke-dasharray:none" />
    <path
       d="m 255.43163,1052.0796 c 0,0 -211.425845,-209.88921 -27.14285,-499.43476"
       id="path3945"
       style="fill:none;stroke:#ffffff;stroke-width:10.54399967;stroke-linecap:butt;stroke-linejoin:miter;stroke-miterlimit:4;stroke-opacity:1;stroke-dasharray:none" />
    <path
       d="M 170.62021,588.69668 C 149.45144,569.13153 138.77838,574.14356 116.52265,570.31341"
       id="path3947"
       style="fill:none;stroke:#ffffff;stroke-width:8.46544075;stroke-linecap:butt;stroke-linejoin:miter;stroke-miterlimit:4;stroke-opacity:1;stroke-dasharray:none" />
    <path
       d="m 203.66552,594.41095 c 21.85464,-10.93844 66.8155,-27.06061 124.09754,-21.24041"
       id="path3949"
       style="fill:none;stroke:#ffffff;stroke-width:8.46544075;stroke-linecap:butt;stroke-linejoin:miter;stroke-miterlimit:4;stroke-opacity:1;stroke-dasharray:none" />
    <path
       d="M 147.04878,632.98239 C 125.88001,613.41724 108.06409,618.42927 85.808367,614.59912"
       id="path3947-6"
       style="fill:none;stroke:#ffffff;stroke-width:8.46544075;stroke-linecap:butt;stroke-linejoin:miter;stroke-miterlimit:4;stroke-opacity:1;stroke-dasharray:none" />
    <path
       d="m 182.95124,640.12523 c 21.85464,-10.93844 66.8155,-27.06061 124.09754,-21.24041"
       id="path3949-9"
       style="fill:none;stroke:#ffffff;stroke-width:8.46544075;stroke-linecap:butt;stroke-linejoin:miter;stroke-miterlimit:4;stroke-opacity:1;stroke-dasharray:none" />
    <path
       d="M 127.04878,692.9824 C 105.88001,673.41725 88.064095,678.42928 65.808367,674.59913"
       id="path3947-6-8"
       style="fill:none;stroke:#ffffff;stroke-width:8.46544075;stroke-linecap:butt;stroke-linejoin:miter;stroke-miterlimit:4;stroke-opacity:1;stroke-dasharray:none" />
    <path
       d="m 160.09409,698.69667 c 21.85464,-10.93844 66.8155,-27.06061 124.09754,-21.24041"
       id="path3949-9-1"
       style="fill:none;stroke:#ffffff;stroke-width:8.46544075;stroke-linecap:butt;stroke-linejoin:miter;stroke-miterlimit:4;stroke-opacity:1;stroke-dasharray:none" />
    <path
       d="M 115.62021,745.83954 C 94.451438,726.27439 83.77838,731.28642 61.522652,727.45627"
       id="path3947-6-8-9"
       style="fill:none;stroke:#ffffff;stroke-width:8.46544075;stroke-linecap:butt;stroke-linejoin:miter;stroke-miterlimit:4;stroke-opacity:1;stroke-dasharray:none" />
    <path
       d="m 154.37981,754.41095 c 21.85465,-10.93844 66.8155,-27.06061 124.09754,-21.24041"
       id="path3949-9-1-2"
       style="fill:none;stroke:#ffffff;stroke-width:8.46544075;stroke-linecap:butt;stroke-linejoin:miter;stroke-miterlimit:4;stroke-opacity:1;stroke-dasharray:none" />
    <path
       d="M 115.62021,807.26811 C 94.451438,787.70296 78.064094,788.42927 55.808367,784.59912"
       id="path3947-6-8-7"
       style="fill:none;stroke:#ffffff;stroke-width:8.46544075;stroke-linecap:butt;stroke-linejoin:miter;stroke-miterlimit:4;stroke-opacity:1;stroke-dasharray:none" />
    <path
       d="M 152.95123,811.55381 C 187.30575,785.55894 225.8189,773.73506 277.04878,790.3134"
       id="path3949-9-1-3"
       style="fill:none;stroke:#ffffff;stroke-width:8.46544075;stroke-linecap:butt;stroke-linejoin:miter;stroke-miterlimit:4;stroke-opacity:1;stroke-dasharray:none" />
    <path
       d="M 118.47735,857.26811 C 93.022866,839.13153 80.921236,841.28642 58.665508,840.31341"
       id="path3947-6-8-9-3"
       style="fill:none;stroke:#ffffff;stroke-width:8.46544075;stroke-linecap:butt;stroke-linejoin:miter;stroke-miterlimit:4;stroke-opacity:1;stroke-dasharray:none" />
    <path
       d="m 157.23695,858.69666 c 20.35967,-18.41339 64.53623,-38.45703 124.09755,-21.24041"
       id="path3949-9-1-2-0"
       style="fill:none;stroke:#ffffff;stroke-width:8.46544075;stroke-linecap:butt;stroke-linejoin:miter;stroke-miterlimit:4;stroke-opacity:1;stroke-dasharray:none" />
    <path
       d="M 134.19164,912.98239 C 124.21152,901.31831 95.617079,885.39991 58.66551,897.45626"
       id="path3947-6-8-7-3"
       style="fill:none;stroke:#ffffff;stroke-width:8.46544075;stroke-linecap:butt;stroke-linejoin:miter;stroke-miterlimit:4;stroke-opacity:1;stroke-dasharray:none" />
    <path
       d="m 175.80837,922.98238 c 26.66505,-31.31158 42.02493,-33.2357 78.38328,-36.9547"
       id="path3949-9-1-3-0"
       style="fill:none;stroke:#ffffff;stroke-width:8.46544075;stroke-linecap:butt;stroke-linejoin:miter;stroke-miterlimit:4;stroke-opacity:1;stroke-dasharray:none" />
    <path
       d="M 210.80837,989.41097 C 237.55556,963.6494 241.901,959.46845 277.76308,953.88484"
       id="path3949-9-1-3-0-3"
       style="fill:none;stroke:#ffffff;stroke-width:8.46544075;stroke-linecap:butt;stroke-linejoin:miter;stroke-miterlimit:4;stroke-opacity:1;stroke-dasharray:none" />
    <path
       d="M 161.33449,969.40062 C 132.78295,946.30798 109.9028,946.10384 80.09408,955.30305"
       id="path3947-6-8-7-3-2"
       style="fill:none;stroke:#ffffff;stroke-width:8.46544075;stroke-linecap:butt;stroke-linejoin:miter;stroke-miterlimit:4;stroke-opacity:1;stroke-dasharray:none" />
    <path
       d="m 240.80836,1035.8395 c 13.89005,-25.7615 31.09263,-31.3711 59.81185,-29.8118"
       id="path3949-9-1-3-0-3-0"
       style="fill:none;stroke:#ffffff;stroke-width:8.46544075;stroke-linecap:butt;stroke-linejoin:miter;stroke-miterlimit:4;stroke-opacity:1;stroke-dasharray:none" />
    <path
       d="m 185.62021,1018.6888 c -25.6944,-18.80692 -67.14598,-24.72543 -81.24042,-9.8119"
       id="path3947-6-8-7-3-2-3"
       style="fill:none;stroke:#ffffff;stroke-width:8.46544075;stroke-linecap:butt;stroke-linejoin:miter;stroke-miterlimit:4;stroke-opacity:1;stroke-dasharray:none" />
    <path
       d="m 292.95122,1048.8165 c 13.89005,-11.4758 22.5212,-11.3711 42.66899,-14.0975"
       id="path3949-9-1-3-0-3-0-5"
       style="fill:none;stroke:#ffffff;stroke-width:8.46544075;stroke-linecap:butt;stroke-linejoin:miter;stroke-miterlimit:4;stroke-opacity:1;stroke-dasharray:none" />
    <path
       d="m 432.85715,218.57143 a 82.14286,212.85715 0 1 1 -164.28572,0 82.14286,212.85715 0 1 1 164.28572,0 z"
       transform="matrix(1.3551072,0,0,1.1324664,-116.01452,553.40881)"
       id="path4144"
       style="fill:#444444;fill-opacity:1;stroke:#ffffff;stroke-width:7;stroke-linejoin:bevel;stroke-miterlimit:4;stroke-opacity:1;stroke-dasharray:none" />
    <path
       d="m 305.71429,271.42856 a 22.857143,84.285713 0 1 1 -45.71429,0 22.857143,84.285713 0 1 1 45.71429,0 z"
       transform="matrix(0.78543462,0,0,1.3179408,54.26279,441.33756)"
       id="path4146"
       style="fill:#ffffff;fill-opacity:1;stroke:#ffffff;stroke-width:7.00020933;stroke-linejoin:bevel;stroke-miterlimit:4;stroke-opacity:1;stroke-dasharray:none" />
    <path
       d="m 325.71429,656.6479 c 0,0 68.64835,109.17995 2.85714,271.42856"
       id="path4150"
       style="fill:none;stroke:#ffffff;stroke-width:6;stroke-linecap:butt;stroke-linejoin:miter;stroke-miterlimit:4;stroke-opacity:1;stroke-dasharray:none" />
    <path
       d="m 352.88398,635.21933 c 0,0 72.93407,136.3228 4.28572,311.42855"
       id="path4150-7"
       style="fill:none;stroke:#ffffff;stroke-width:6;stroke-linecap:butt;stroke-linejoin:miter;stroke-miterlimit:4;stroke-opacity:1;stroke-dasharray:none" />
  </g>
</svg>
