<?xml version="1.0" encoding="UTF-8" standalone="no"?>
<!-- Created with Inkscape (http://www.inkscape.org/) -->

<svg
   xmlns:dc="http://purl.org/dc/elements/1.1/"
   xmlns:cc="http://creativecommons.org/ns#"
   xmlns:rdf="http://www.w3.org/1999/02/22-rdf-syntax-ns#"
   xmlns:svg="http://www.w3.org/2000/svg"
   xmlns="http://www.w3.org/2000/svg"
   version="1.1"
   width="500"
   height="500"
   id="svg4401">
  <defs
     id="defs4403" />
  <metadata
     id="metadata4406">
    <rdf:RDF>
      <cc:Work
         rdf:about="">
        <dc:format>image/svg+xml</dc:format>
        <dc:type
           rdf:resource="http://purl.org/dc/dcmitype/StillImage" />
        <dc:title></dc:title>
      </cc:Work>
    </rdf:RDF>
  </metadata>
  <g
     transform="translate(0,-552.36218)"
     id="layer1">
    <g
       transform="matrix(1,0,175077.78,700312,-139350870,-557403380)"
       id="g3002">
      <rect
         width="21.697693"
         height="230"
         rx="5.7333813"
         ry="0"
         x="248.30231"
         y="562.36218"
         id="rect3004"
         style="fill:#444444;fill-opacity:1;stroke:#444444;stroke-width:7.14945078;stroke-linejoin:bevel;stroke-miterlimit:4;stroke-opacity:1;stroke-dasharray:none" />
      <rect
         width="24.47768"
         height="78.972572"
         rx="1.1234935e-05"
         ry="0"
         x="-276.07489"
         y="546.20825"
         transform="matrix(0.70727072,-0.70694281,0.70533479,0.70887434,0,0)"
         id="rect3006"
         style="fill:#444444;fill-opacity:1;stroke:#444444;stroke-width:4.44964409;stroke-linejoin:bevel;stroke-miterlimit:4;stroke-opacity:1;stroke-dasharray:none" />
      <rect
         width="24.47768"
         height="78.972572"
         rx="1.1234928e-05"
         ry="0"
         x="-644.69049"
         y="178.59705"
         transform="matrix(-0.70727072,-0.70694281,-0.70533479,0.70887434,0,0)"
         id="rect3008"
         style="fill:#444444;fill-opacity:1;stroke:#444444;stroke-width:4.44964409;stroke-linejoin:bevel;stroke-miterlimit:4;stroke-opacity:1;stroke-dasharray:none" />
    </g>
    <g
       transform="translate(-10.036101,10.319232)"
       id="g3815">
      <path
         d="M 214.15234,199.98467 153.64714,326.48244 280.86058,385.46808 141.0577,396.31793 153.58136,535.98082 74.283672,420.33289 -40.40611,501.01014 20.099088,374.51237 -107.11435,315.52673 32.688531,304.67688 20.164876,165.014 99.462559,280.66192 z"
         transform="matrix(1.098219,-0.20712923,0.20712923,1.098219,91.736989,425.14725)"
         id="path5252"
         style="fill:none;stroke:#444444;stroke-width:25.28100014;stroke-linejoin:bevel;stroke-miterlimit:4;stroke-opacity:1;stroke-dasharray:none" />
      <g
         id="g2997">
        <rect
           width="21.697693"
           height="230"
           rx="5.7333813"
           ry="0"
           x="248.30231"
           y="562.36218"
           id="rect5257"
           style="fill:#444444;fill-opacity:1;stroke:#444444;stroke-width:7.14945078;stroke-linejoin:bevel;stroke-miterlimit:4;stroke-opacity:1;stroke-dasharray:none" />
        <rect
           width="24.47768"
           height="78.972572"
           rx="5.7333798"
           ry="0"
           x="-276.07489"
           y="546.20825"
           transform="matrix(0.70727072,-0.70694281,0.70533479,0.70887434,0,0)"
           id="rect2993"
           style="fill:#444444;fill-opacity:1;stroke:#444444;stroke-width:4.44964409;stroke-linejoin:bevel;stroke-miterlimit:4;stroke-opacity:1;stroke-dasharray:none" />
        <rect
           width="24.47768"
           height="78.972572"
           rx="5.7333798"
           ry="0"
           x="-644.69049"
           y="178.59705"
           transform="matrix(-0.70727072,-0.70694281,-0.70533479,0.70887434,0,0)"
           id="rect2995"
           style="fill:#444444;fill-opacity:1;stroke:#444444;stroke-width:4.44964409;stroke-linejoin:bevel;stroke-miterlimit:4;stroke-opacity:1;stroke-dasharray:none" />
      </g>
      <g
         id="g3010">
        <rect
           width="21.697693"
           height="230"
           rx="5.7333813"
           ry="0"
           x="248.30231"
           y="562.36218"
           id="rect3012"
           style="fill:#444444;fill-opacity:1;stroke:#444444;stroke-width:7.14945078;stroke-linejoin:bevel;stroke-miterlimit:4;stroke-opacity:1;stroke-dasharray:none" />
        <rect
           width="24.47768"
           height="78.972572"
           rx="5.7333798"
           ry="0"
           x="-276.07489"
           y="546.20825"
           transform="matrix(0.70727072,-0.70694281,0.70533479,0.70887434,0,0)"
           id="rect3014"
           style="fill:#444444;fill-opacity:1;stroke:#444444;stroke-width:4.44964409;stroke-linejoin:bevel;stroke-miterlimit:4;stroke-opacity:1;stroke-dasharray:none" />
        <rect
           width="24.47768"
           height="78.972572"
           rx="5.7333798"
           ry="0"
           x="-644.69049"
           y="178.59705"
           transform="matrix(-0.70727072,-0.70694281,-0.70533479,0.70887434,0,0)"
           id="rect3016"
           style="fill:#444444;fill-opacity:1;stroke:#444444;stroke-width:4.44964409;stroke-linejoin:bevel;stroke-miterlimit:4;stroke-opacity:1;stroke-dasharray:none" />
      </g>
      <g
         transform="matrix(0.5,0.8660254,-0.8660254,0.5,809.34319,169.28641)"
         id="g3018">
        <rect
           width="21.697693"
           height="230"
           rx="5.7333813"
           ry="0"
           x="248.30231"
           y="562.36218"
           id="rect3020"
           style="fill:#444444;fill-opacity:1;stroke:#444444;stroke-width:7.14945078;stroke-linejoin:bevel;stroke-miterlimit:4;stroke-opacity:1;stroke-dasharray:none" />
        <rect
           width="24.47768"
           height="78.972572"
           rx="5.7333798"
           ry="0"
           x="-276.07489"
           y="546.20825"
           transform="matrix(0.70727072,-0.70694281,0.70533479,0.70887434,0,0)"
           id="rect3022"
           style="fill:#444444;fill-opacity:1;stroke:#444444;stroke-width:4.44964409;stroke-linejoin:bevel;stroke-miterlimit:4;stroke-opacity:1;stroke-dasharray:none" />
        <rect
           width="24.47768"
           height="78.972572"
           rx="5.7333798"
           ry="0"
           x="-644.69049"
           y="178.59705"
           transform="matrix(-0.70727072,-0.70694281,-0.70533479,0.70887434,0,0)"
           id="rect3024"
           style="fill:#444444;fill-opacity:1;stroke:#444444;stroke-width:4.44964409;stroke-linejoin:bevel;stroke-miterlimit:4;stroke-opacity:1;stroke-dasharray:none" />
      </g>
      <g
         transform="matrix(-0.5,0.8660254,-0.8660254,-0.5,1081.2058,964.71641)"
         id="g3026">
        <rect
           width="21.697693"
           height="230"
           rx="5.7333813"
           ry="0"
           x="248.30231"
           y="562.36218"
           id="rect3028"
           style="fill:#444444;fill-opacity:1;stroke:#444444;stroke-width:7.14945078;stroke-linejoin:bevel;stroke-miterlimit:4;stroke-opacity:1;stroke-dasharray:none" />
        <rect
           width="24.47768"
           height="78.972572"
           rx="5.7333798"
           ry="0"
           x="-276.07489"
           y="546.20825"
           transform="matrix(0.70727072,-0.70694281,0.70533479,0.70887434,0,0)"
           id="rect3030"
           style="fill:#444444;fill-opacity:1;stroke:#444444;stroke-width:4.44964409;stroke-linejoin:bevel;stroke-miterlimit:4;stroke-opacity:1;stroke-dasharray:none" />
        <rect
           width="24.47768"
           height="78.972572"
           rx="5.7333798"
           ry="0"
           x="-644.69049"
           y="178.59705"
           transform="matrix(-0.70727072,-0.70694281,-0.70533479,0.70887434,0,0)"
           id="rect3032"
           style="fill:#444444;fill-opacity:1;stroke:#444444;stroke-width:4.44964409;stroke-linejoin:bevel;stroke-miterlimit:4;stroke-opacity:1;stroke-dasharray:none" />
      </g>
      <g
         transform="matrix(-1,0,0,-1,518.30231,1584.7244)"
         id="g3034">
        <rect
           width="21.697693"
           height="230"
           rx="5.7333813"
           ry="0"
           x="248.30231"
           y="562.36218"
           id="rect3036"
           style="fill:#444444;fill-opacity:1;stroke:#444444;stroke-width:7.14945078;stroke-linejoin:bevel;stroke-miterlimit:4;stroke-opacity:1;stroke-dasharray:none" />
        <rect
           width="24.47768"
           height="78.972572"
           rx="5.7333798"
           ry="0"
           x="-276.07489"
           y="546.20825"
           transform="matrix(0.70727072,-0.70694281,0.70533479,0.70887434,0,0)"
           id="rect3038"
           style="fill:#444444;fill-opacity:1;stroke:#444444;stroke-width:4.44964409;stroke-linejoin:bevel;stroke-miterlimit:4;stroke-opacity:1;stroke-dasharray:none" />
        <rect
           width="24.47768"
           height="78.972572"
           rx="5.7333798"
           ry="0"
           x="-644.69049"
           y="178.59705"
           transform="matrix(-0.70727072,-0.70694281,-0.70533479,0.70887434,0,0)"
           id="rect3040"
           style="fill:#444444;fill-opacity:1;stroke:#444444;stroke-width:4.44964409;stroke-linejoin:bevel;stroke-miterlimit:4;stroke-opacity:1;stroke-dasharray:none" />
      </g>
      <g
         transform="matrix(-0.5,-0.8660254,0.8660254,-0.5,-301.20578,1412.3701)"
         id="g3042">
        <rect
           width="21.697693"
           height="230"
           rx="5.7333813"
           ry="0"
           x="248.30231"
           y="562.36218"
           id="rect3044"
           style="fill:#444444;fill-opacity:1;stroke:#444444;stroke-width:7.14945078;stroke-linejoin:bevel;stroke-miterlimit:4;stroke-opacity:1;stroke-dasharray:none" />
        <rect
           width="24.47768"
           height="78.972572"
           rx="5.7333798"
           ry="0"
           x="-276.07489"
           y="546.20825"
           transform="matrix(0.70727072,-0.70694281,0.70533479,0.70887434,0,0)"
           id="rect3046"
           style="fill:#444444;fill-opacity:1;stroke:#444444;stroke-width:4.44964409;stroke-linejoin:bevel;stroke-miterlimit:4;stroke-opacity:1;stroke-dasharray:none" />
        <rect
           width="24.47768"
           height="78.972572"
           rx="5.7333798"
           ry="0"
           x="-644.69049"
           y="178.59705"
           transform="matrix(-0.70727072,-0.70694281,-0.70533479,0.70887434,0,0)"
           id="rect3048"
           style="fill:#444444;fill-opacity:1;stroke:#444444;stroke-width:4.44964409;stroke-linejoin:bevel;stroke-miterlimit:4;stroke-opacity:1;stroke-dasharray:none" />
      </g>
      <g
         transform="matrix(0.5,-0.8660254,0.8660254,0.5,-556.32875,624.39846)"
         id="g3058">
        <rect
           width="21.697693"
           height="230"
           rx="5.7333813"
           ry="0"
           x="248.30231"
           y="562.36218"
           id="rect3060"
           style="fill:#444444;fill-opacity:1;stroke:#444444;stroke-width:7.14945078;stroke-linejoin:bevel;stroke-miterlimit:4;stroke-opacity:1;stroke-dasharray:none" />
        <rect
           width="24.47768"
           height="78.972572"
           rx="5.7333798"
           ry="0"
           x="-276.07489"
           y="546.20825"
           transform="matrix(0.70727072,-0.70694281,0.70533479,0.70887434,0,0)"
           id="rect3062"
           style="fill:#444444;fill-opacity:1;stroke:#444444;stroke-width:4.44964409;stroke-linejoin:bevel;stroke-miterlimit:4;stroke-opacity:1;stroke-dasharray:none" />
        <rect
           width="24.47768"
           height="78.972572"
           rx="5.7333798"
           ry="0"
           x="-644.69049"
           y="178.59705"
           transform="matrix(-0.70727072,-0.70694281,-0.70533479,0.70887434,0,0)"
           id="rect3064"
           style="fill:#444444;fill-opacity:1;stroke:#444444;stroke-width:4.44964409;stroke-linejoin:bevel;stroke-miterlimit:4;stroke-opacity:1;stroke-dasharray:none" />
      </g>
    </g>
    <rect
       width="73.27993"
       height="654.58765"
       rx="34.56831"
       ry="34.568295"
       x="-781.16602"
       y="43.903683"
       transform="matrix(-0.6884131,-0.72531883,-0.7061668,0.70804551,0,0)"
       id="rect3852"
       style="fill:#ff0000;fill-opacity:1;stroke:#ff0000;stroke-width:9.74819565;stroke-miterlimit:4;stroke-opacity:1;stroke-dasharray:none" />
  </g>
</svg>
